<svg width="18" height="18" viewBox="0 0 18 18" fill="none" xmlns="http://www.w3.org/2000/svg">
<path fill-rule="evenodd" clip-rule="evenodd" d="M13.3393 14.9499C12.1224 15.8389 10.6225 16.3636 9 16.3636C4.93318 16.3636 1.63636 13.0668 1.63636 9C1.63636 7.1269 2.33573 5.41715 3.48758 4.11763L13.3393 14.9499ZM14.4473 13.9549L4.58234 3.10816C5.81295 2.18398 7.34253 1.63636 9 1.63636C13.0668 1.63636 16.3636 4.93318 16.3636 9C16.3636 10.9081 15.6379 12.6468 14.4473 13.9549ZM18 9C18 13.9706 13.9706 18 9 18C4.02944 18 0 13.9706 0 9C0 4.02944 4.02944 0 9 0C13.9706 0 18 4.02944 18 9Z" fill="#E3891E"/>
</svg>
