<svg width="56" height="57" viewBox="0 0 56 57" fill="none" xmlns="http://www.w3.org/2000/svg">
<rect width="56" height="57" rx="28" fill="black"/>
<path d="M27.9563 37.7386C31.8768 37.7386 34.6808 35.5824 34.6722 32.5994C34.6808 30.4261 33.3001 28.875 30.7347 28.5511V28.4148C32.6864 28.0653 34.033 26.6847 34.0245 24.7244C34.033 21.9716 31.6211 19.8068 28.0075 19.8068C24.4279 19.8068 21.7347 21.9034 21.6836 24.9205H25.2205C25.2631 23.5909 26.4819 22.7301 27.9904 22.7301C29.4819 22.7301 30.479 23.6335 30.4705 24.946C30.479 26.3182 29.3114 27.2472 27.6325 27.2472H26.0046V29.9574H27.6325C29.6097 29.9574 30.8455 30.946 30.837 32.3523C30.8455 33.7415 29.6523 34.696 27.9648 34.696C26.337 34.696 25.1183 33.8438 25.0501 32.5653H21.3342C21.3938 35.6165 24.1211 37.7386 27.9563 37.7386Z" fill="white"/>
</svg>
