<svg width="20" height="20" viewBox="0 0 20 20" fill="none" xmlns="http://www.w3.org/2000/svg">
<path d="M14.5415 18.9584C13.5998 18.9584 12.6082 18.7334 11.5832 18.3C10.5832 17.875 9.57484 17.2917 8.5915 16.5834C7.6165 15.8667 6.67484 15.0667 5.78317 14.1917C4.89984 13.3 4.09984 12.3584 3.3915 11.3917C2.67484 10.3917 2.09984 9.39169 1.6915 8.42502C1.25817 7.39169 1.0415 6.39169 1.0415 5.45002C1.0415 4.80002 1.15817 4.18335 1.38317 3.60835C1.6165 3.01669 1.9915 2.46669 2.49984 1.99169C3.1415 1.35835 3.87484 1.04169 4.65817 1.04169C4.98317 1.04169 5.3165 1.11669 5.59984 1.25002C5.92484 1.40002 6.19984 1.62502 6.39984 1.92502L8.33317 4.65002C8.50817 4.89169 8.6415 5.12502 8.73317 5.35835C8.8415 5.60835 8.89984 5.85835 8.89984 6.10002C8.89984 6.41669 8.80817 6.72502 8.63317 7.01669C8.50817 7.24169 8.3165 7.48335 8.07484 7.72502L7.50817 8.31669C7.5165 8.34169 7.52484 8.35835 7.53317 8.37502C7.63317 8.55002 7.83317 8.85002 8.2165 9.30002C8.62484 9.76669 9.00817 10.1917 9.3915 10.5834C9.88317 11.0667 10.2915 11.45 10.6748 11.7667C11.1498 12.1667 11.4582 12.3667 11.6415 12.4584L11.6248 12.5L12.2332 11.9C12.4915 11.6417 12.7415 11.45 12.9832 11.325C13.4415 11.0417 14.0248 10.9917 14.6082 11.2334C14.8248 11.325 15.0582 11.45 15.3082 11.625L18.0748 13.5917C18.3832 13.8 18.6082 14.0667 18.7415 14.3834C18.8665 14.7 18.9248 14.9917 18.9248 15.2834C18.9248 15.6834 18.8332 16.0834 18.6582 16.4584C18.4832 16.8334 18.2665 17.1584 17.9915 17.4584C17.5165 17.9834 16.9998 18.3584 16.3998 18.6C15.8248 18.8334 15.1998 18.9584 14.5415 18.9584ZM4.65817 2.29169C4.19984 2.29169 3.77484 2.49169 3.3665 2.89169C2.98317 3.25002 2.7165 3.64169 2.54984 4.06669C2.37484 4.50002 2.2915 4.95835 2.2915 5.45002C2.2915 6.22502 2.47484 7.06669 2.8415 7.93335C3.2165 8.81669 3.7415 9.73335 4.40817 10.65C5.07484 11.5667 5.83317 12.4584 6.6665 13.3C7.49984 14.125 8.39984 14.8917 9.32484 15.5667C10.2248 16.225 11.1498 16.7584 12.0665 17.1417C13.4915 17.75 14.8248 17.8917 15.9248 17.4334C16.3498 17.2584 16.7248 16.9917 17.0665 16.6084C17.2582 16.4 17.4082 16.175 17.5332 15.9084C17.6332 15.7 17.6832 15.4834 17.6832 15.2667C17.6832 15.1334 17.6582 15 17.5915 14.85C17.5665 14.8 17.5165 14.7084 17.3582 14.6L14.5915 12.6334C14.4248 12.5167 14.2748 12.4334 14.1332 12.375C13.9498 12.3 13.8748 12.225 13.5915 12.4C13.4248 12.4834 13.2748 12.6084 13.1082 12.775L12.4748 13.4C12.1498 13.7167 11.6498 13.7917 11.2665 13.65L11.0415 13.55C10.6998 13.3667 10.2998 13.0834 9.85817 12.7084C9.45817 12.3667 9.02484 11.9667 8.49984 11.45C8.0915 11.0334 7.68317 10.5917 7.25817 10.1C6.8665 9.64169 6.58317 9.25002 6.40817 8.92502L6.30817 8.67502C6.25817 8.48335 6.2415 8.37502 6.2415 8.25835C6.2415 7.95835 6.34984 7.69169 6.55817 7.48335L7.18317 6.83335C7.34984 6.66669 7.47484 6.50835 7.55817 6.36669C7.62484 6.25835 7.64984 6.16669 7.64984 6.08335C7.64984 6.01669 7.62484 5.91669 7.58317 5.81669C7.52484 5.68335 7.43317 5.53335 7.3165 5.37502L5.38317 2.64169C5.29984 2.52502 5.19984 2.44169 5.07484 2.38335C4.9415 2.32502 4.79984 2.29169 4.65817 2.29169ZM11.6248 12.5084L11.4915 13.075L11.7165 12.4917C11.6748 12.4834 11.6415 12.4917 11.6248 12.5084Z" fill="#292D32"/>
</svg>
