<svg width="24" height="24" viewBox="0 0 24 24" fill="none" xmlns="http://www.w3.org/2000/svg">
  <path d="M15 22.25H9C6.3424 22.25 4.56492 21.6803 3.4423 20.5577C2.31968 19.4351 1.75 17.6576 1.75 15V9C1.75 6.3424 2.31968 4.56492 3.4423 3.4423C4.56492 2.31968 6.3424 1.75 9 1.75H11C11.1339 1.75 11.25 1.86614 11.25 2C11.25 2.13386 11.1339 2.25 11 2.25H9C6.65972 2.25 4.92432 2.66107 3.7927 3.7927C2.66107 4.92432 2.25 6.65972 2.25 9V15C2.25 17.3403 2.66107 19.0757 3.7927 20.2073C4.92432 21.3389 6.65972 21.75 9 21.75H15C17.3403 21.75 19.0757 21.3389 20.2073 20.2073C21.3389 19.0757 21.75 17.3403 21.75 15V13C21.75 12.8661 21.8661 12.75 22 12.75C22.1339 12.75 22.25 12.8661 22.25 13V15C22.25 17.6576 21.6803 19.4351 20.5577 20.5577C19.4351 21.6803 17.6576 22.25 15 22.25Z" />
  <path d="M6.82455 15.1921L6.82481 15.1903L7.25482 12.1803L7.25515 12.1779C7.31987 11.7087 7.64846 11.0581 7.98339 10.7231L15.8634 2.84312C16.8026 1.90396 17.6854 1.49707 18.5098 1.49707C19.3343 1.49707 20.2171 1.90396 21.1563 2.84312C22.1806 3.86743 22.5735 4.83904 22.4921 5.75233C22.4168 6.49821 22.0161 7.27565 21.1582 8.12406L21.1563 8.12602L13.2763 16.006C12.9414 16.3409 12.2907 16.6695 11.8215 16.7343L11.8191 16.7346L8.80912 17.1646L8.7881 17.1676L8.7674 17.1724C8.70142 17.1876 8.62743 17.1896 8.49984 17.1896C8.01235 17.1896 7.58134 17.0152 7.27122 16.7138C6.90867 16.3498 6.73457 15.8056 6.82455 15.1921ZM16.2178 3.1945L16.2163 3.19602L8.33628 11.076C8.18745 11.2248 8.05664 11.4356 7.96205 11.6234C7.8674 11.8112 7.77701 12.0397 7.74565 12.2435L7.74562 12.2435L7.74486 12.2489L7.31485 15.2589L7.31452 15.2613C7.26183 15.6433 7.32728 16.0641 7.62628 16.3631C7.92529 16.6621 8.34608 16.7276 8.72815 16.6749L8.73055 16.6745L11.7405 16.2445L11.7406 16.2446L11.7459 16.2438C11.9484 16.2126 12.1786 16.123 12.3684 16.028C12.5532 15.9357 12.7684 15.8041 12.9174 15.6491L20.7934 7.77312C21.4739 7.0926 21.9117 6.40849 21.9777 5.69567L21.9777 5.69553C22.058 4.82531 21.593 3.99615 20.7957 3.18834L20.7957 3.18833L20.7934 3.18602C19.9441 2.33668 19.1306 1.93459 18.2975 2.0117C17.4926 2.08619 16.8178 2.59959 16.2178 3.1945Z" />
  <path d="M19.808 9.32588L19.7969 9.32218L19.7855 9.31896C17.3237 8.6263 15.3651 6.66811 14.6719 4.20661C14.6362 4.07487 14.7081 3.93596 14.8481 3.89092C14.9832 3.85679 15.1125 3.9341 15.148 4.06285L15.1479 4.06285L15.1488 4.06584C15.796 6.3634 17.6169 8.18434 19.9145 8.83154L19.9145 8.83155L19.9175 8.83237C20.0422 8.86668 20.1272 9.00488 20.088 9.14769L20.0867 9.15232C20.0581 9.26041 19.9665 9.33027 19.8501 9.33027C19.8385 9.33027 19.828 9.32942 19.8196 9.32817C19.8117 9.32699 19.8078 9.32582 19.808 9.32588Z" />
</svg>
  