<svg width="20" height="20" viewBox="0 0 20 20" fill="none" xmlns="http://www.w3.org/2000/svg">
  <path d="M15 8.95835C14.6583 8.95835 14.375 8.67502 14.375 8.33335V6.66669C14.375 4.04169 13.6333 2.29169 10 2.29169C6.36667 2.29169 5.625 4.04169 5.625 6.66669V8.33335C5.625 8.67502 5.34167 8.95835 5 8.95835C4.65833 8.95835 4.375 8.67502 4.375 8.33335V6.66669C4.375 4.25002 4.95833 1.04169 10 1.04169C15.0417 1.04169 15.625 4.25002 15.625 6.66669V8.33335C15.625 8.67502 15.3417 8.95835 15 8.95835Z" fill="#292D32" />
  <path d="M9.99984 16.0417C8.50817 16.0417 7.2915 14.825 7.2915 13.3333C7.2915 11.8417 8.50817 10.625 9.99984 10.625C11.4915 10.625 12.7082 11.8417 12.7082 13.3333C12.7082 14.825 11.4915 16.0417 9.99984 16.0417ZM9.99984 11.875C9.19984 11.875 8.5415 12.5333 8.5415 13.3333C8.5415 14.1333 9.19984 14.7917 9.99984 14.7917C10.7998 14.7917 11.4582 14.1333 11.4582 13.3333C11.4582 12.5333 10.7998 11.875 9.99984 11.875Z" fill="#292D32" />
  <path d="M14.1665 18.9583H5.83317C2.15817 18.9583 1.0415 17.8416 1.0415 14.1666V12.5C1.0415 8.82498 2.15817 7.70831 5.83317 7.70831H14.1665C17.8415 7.70831 18.9582 8.82498 18.9582 12.5V14.1666C18.9582 17.8416 17.8415 18.9583 14.1665 18.9583ZM5.83317 8.95831C2.84984 8.95831 2.2915 9.52498 2.2915 12.5V14.1666C2.2915 17.1416 2.84984 17.7083 5.83317 17.7083H14.1665C17.1498 17.7083 17.7082 17.1416 17.7082 14.1666V12.5C17.7082 9.52498 17.1498 8.95831 14.1665 8.95831H5.83317Z" fill="#292D32" />
</svg>