<svg width="19" height="19" viewBox="0 0 19 19" fill="none" xmlns="http://www.w3.org/2000/svg">
  <path d="M5.7395 5.54171H13.2603V3.95837C13.2603 2.37504 12.6666 1.58337 10.8853 1.58337H8.1145C6.33325 1.58337 5.7395 2.37504 5.7395 3.95837V5.54171Z" stroke-width="1.5" stroke-miterlimit="10" stroke-linecap="round" stroke-linejoin="round" />
  <path d="M12.6666 11.875V15.0417C12.6666 16.625 11.8749 17.4167 10.2916 17.4167H8.70825C7.12492 17.4167 6.33325 16.625 6.33325 15.0417V11.875H12.6666Z" stroke-width="1.5" stroke-miterlimit="10" stroke-linecap="round" stroke-linejoin="round" />
  <path d="M16.625 7.91663V11.875C16.625 13.4583 15.8333 14.25 14.25 14.25H12.6667V11.875H6.33333V14.25H4.75C3.16667 14.25 2.375 13.4583 2.375 11.875V7.91663C2.375 6.33329 3.16667 5.54163 4.75 5.54163H14.25C15.8333 5.54163 16.625 6.33329 16.625 7.91663Z" stroke-width="1.5" stroke-miterlimit="10" stroke-linecap="round" stroke-linejoin="round" />
  <path d="M13.4584 11.875H12.5005H5.54175" stroke-width="1.5" stroke-miterlimit="10" stroke-linecap="round" stroke-linejoin="round" />
  <path d="M5.54175 8.70837H7.91675" stroke-width="1.5" stroke-miterlimit="10" stroke-linecap="round" stroke-linejoin="round" />
</svg>
  