<svg width="20" height="20" viewBox="0 0 20 20" fill="none" xmlns="http://www.w3.org/2000/svg">
  <path d="M13.3335 18.9584H6.66683C4.15016 18.9584 2.7085 17.5167 2.7085 15V6.87502C2.7085 4.25002 4.04183 2.91669 6.66683 2.91669C7.0085 2.91669 7.29183 3.20002 7.29183 3.54169C7.29183 3.87502 7.42516 4.19169 7.6585 4.42502C7.89183 4.65835 8.2085 4.79169 8.54183 4.79169H11.4585C12.1502 4.79169 12.7085 4.23335 12.7085 3.54169C12.7085 3.20002 12.9918 2.91669 13.3335 2.91669C15.9585 2.91669 17.2918 4.25002 17.2918 6.87502V15C17.2918 17.5167 15.8502 18.9584 13.3335 18.9584ZM6.12514 4.18336C4.80848 4.29169 3.9585 4.88335 3.9585 6.87502V15C3.9585 16.85 4.81683 17.7084 6.66683 17.7084H13.3335C15.1835 17.7084 16.0418 16.85 16.0418 15V6.87502C16.0418 4.88335 15.1918 4.30002 13.8752 4.18336C13.5918 5.25002 12.6168 6.04169 11.4585 6.04169H8.54183C7.87516 6.04169 7.25017 5.78335 6.77517 5.30835C6.4585 4.99168 6.24181 4.60836 6.12514 4.18336Z" fill="#292D32" />
  <path d="M11.4582 6.04169H8.5415C7.87484 6.04169 7.24984 5.78335 6.77484 5.30835C6.29984 4.83335 6.0415 4.20835 6.0415 3.54169C6.0415 2.16669 7.1665 1.04169 8.5415 1.04169H11.4582C12.1248 1.04169 12.7498 1.30002 13.2248 1.77502C13.6998 2.25002 13.9582 2.87502 13.9582 3.54169C13.9582 4.91669 12.8332 6.04169 11.4582 6.04169ZM8.5415 2.29169C7.84984 2.29169 7.2915 2.85002 7.2915 3.54169C7.2915 3.87502 7.42484 4.19169 7.65817 4.42502C7.89151 4.65835 8.20817 4.79169 8.5415 4.79169H11.4582C12.1498 4.79169 12.7082 4.23335 12.7082 3.54169C12.7082 3.20835 12.5748 2.89169 12.3415 2.65836C12.1082 2.42502 11.7915 2.29169 11.4582 2.29169H8.5415Z" fill="#292D32" />
  <path d="M9.99984 11.4583H6.6665C6.32484 11.4583 6.0415 11.175 6.0415 10.8333C6.0415 10.4916 6.32484 10.2083 6.6665 10.2083H9.99984C10.3415 10.2083 10.6248 10.4916 10.6248 10.8333C10.6248 11.175 10.3415 11.4583 9.99984 11.4583Z" fill="#292D32" />
  <path d="M13.3332 14.7917H6.6665C6.32484 14.7917 6.0415 14.5084 6.0415 14.1667C6.0415 13.825 6.32484 13.5417 6.6665 13.5417H13.3332C13.6748 13.5417 13.9582 13.825 13.9582 14.1667C13.9582 14.5084 13.6748 14.7917 13.3332 14.7917Z" fill="#292D32" />
</svg>
  