<svg width="19" height="19" viewBox="0 0 19 19" fill="none" xmlns="http://www.w3.org/2000/svg">
<path d="M2.0358 8.1429H6.10712C6.64695 8.1429 7.16477 7.92824 7.54652 7.5465C7.92826 7.16476 8.14292 6.64693 8.14292 6.10711V2.03579C8.14292 1.49596 7.92826 0.978147 7.54652 0.596395C7.16478 0.214419 6.64694 0 6.10712 0H2.0358C1.49597 0 0.978149 0.214419 0.596397 0.596395C0.214421 0.978135 0 1.49597 0 2.03579V6.10711C0 6.64694 0.214421 7.16475 0.596397 7.5465C0.978137 7.92824 1.49598 8.1429 2.0358 8.1429ZM2.7143 2.71428H5.42861V5.42859H2.7143V2.71428Z" fill="#292D32"/>
<path d="M0.00012207 16.9642C0.00012207 17.5041 0.214542 18.0219 0.596518 18.4036C0.978259 18.7856 1.4961 19 2.03592 19H6.10724C6.64707 19 7.16489 18.7856 7.54664 18.4036C7.92838 18.0219 8.14304 17.504 8.14304 16.9642V12.8929C8.14304 12.3531 7.92838 11.8353 7.54664 11.4535C7.1649 11.0718 6.64706 10.8571 6.10724 10.8571H2.03592C1.49609 10.8571 0.978271 11.0718 0.596518 11.4535C0.214542 11.8353 0.00012207 12.3531 0.00012207 12.8929V16.9642ZM2.71444 13.5714H5.42875V16.2857H2.71444V13.5714Z" fill="#292D32"/>
<path d="M16.9642 8.1429C17.504 8.1429 18.0218 7.92824 18.4036 7.5465C18.7856 7.16476 19 6.64693 19 6.10711V2.03579C19 1.49596 18.7856 0.978147 18.4036 0.596395C18.0218 0.214419 17.504 0 16.9642 0H12.8929C12.353 0 11.8352 0.214419 11.4535 0.596395C11.0717 0.978135 10.8571 1.49597 10.8571 2.03579V6.10711C10.8571 6.64694 11.0717 7.16475 11.4535 7.5465C11.8352 7.92824 12.353 8.1429 12.8929 8.1429H16.9642ZM13.5714 2.71428H16.2857V5.42859H13.5714V2.71428Z" fill="#292D32"/>
<path d="M13.5714 13.5714H16.2857V16.2857H13.5714V13.5714Z" fill="#292D32"/>
<path d="M16.2856 10.8572H19V13.5715H16.2856V10.8572Z" fill="#292D32"/>
<path d="M10.8572 10.8572H13.5715V13.5715H10.8572V10.8572Z" fill="#292D32"/>
<path d="M16.2856 16.2856H19V19H16.2856V16.2856Z" fill="#292D32"/>
<path d="M10.8572 16.2856H13.5715V19H10.8572V16.2856Z" fill="#292D32"/>
</svg>
