<svg width="24" height="24" viewBox="0 0 24 24" fill="none" xmlns="http://www.w3.org/2000/svg">
<path d="M2.76951 6.69396L2.76956 6.69298C2.86763 4.56224 4.55028 2.87685 6.69457 2.76939C6.69473 2.76938 6.69489 2.76938 6.69506 2.76937L11.6917 2.52953C13.1072 2.47535 14.4894 2.99641 15.4865 3.99355L20.0165 8.52355C21.9713 10.4783 21.9713 13.6717 20.0165 15.6264L15.6282 20.0148C15.6279 20.0151 15.6276 20.0154 15.6273 20.0157C14.6442 20.9892 13.3625 21.48 12.0701 21.48C10.7864 21.48 9.49551 20.9883 8.52364 20.0164L3.99364 15.4864C2.99451 14.4873 2.466 13.1047 2.52955 11.6932C2.52956 11.693 2.52957 11.6928 2.52958 11.6925L2.76951 6.69396ZM3.2607 6.70533L3.26066 6.70602L3.02066 11.706L3.02058 11.7079C2.96439 12.9777 3.44707 14.2241 4.34653 15.1235L8.87653 19.6535C9.7297 20.5067 10.8666 20.98 12.0701 20.98C13.2735 20.98 14.4105 20.5067 15.2636 19.6535L19.6536 15.2635C20.5068 14.4104 20.9801 13.2734 20.9801 12.07C20.9801 10.8665 20.5068 9.72961 19.6536 8.87644L15.1236 4.34644C14.2251 3.44791 12.9781 2.96337 11.7148 3.03063C11.7143 3.03066 11.7138 3.03068 11.7133 3.03071L6.71864 3.27045C6.71821 3.27047 6.71778 3.27049 6.71735 3.27051C4.82914 3.35224 3.35338 4.82855 3.2607 6.70533Z" />
<path d="M9.5 12.25C7.98614 12.25 6.75 11.0139 6.75 9.5C6.75 7.98614 7.98614 6.75 9.5 6.75C11.0139 6.75 12.25 7.98614 12.25 9.5C12.25 11.0139 11.0139 12.25 9.5 12.25ZM9.5 7.25C8.26386 7.25 7.25 8.26386 7.25 9.5C7.25 10.7361 8.26386 11.75 9.5 11.75C10.7361 11.75 11.75 10.7361 11.75 9.5C11.75 8.26386 10.7361 7.25 9.5 7.25Z" />
</svg>
